<svg xmlns="http://www.w3.org/2000/svg" width="520" height="380" fill="none" viewBox="0 0 520 380"><path fill="#EFCBAB" d="M0.688677 324.943C5.89574 358.307 39.9417 379.555 74.8619 379.555H144.028L138.617 185.091C138.617 185.091 72.6231 163.91 56.053 184.059C41.5297 201.711 2.15122 271.588 0.0770183 312.945C-0.130794 317.099 0.0848449 321.103 0.688677 324.943Z"/><path fill="#C6916D" d="M184.291 205.686C184.291 205.686 90.9861 158.061 73.3138 189.17C63.9317 205.686 38.1068 271.589 36.202 312.946C34.3514 353.131 69.1625 379.552 104.974 379.552H168.582L184.291 205.686Z"/><path fill="#EFCBAB" d="M166.752 232.099C167.536 236.146 175.095 239.903 186.302 243.225C188.278 243.812 190.365 244.384 192.552 244.941C230.704 254.687 298.29 260.126 304.731 257.255C313.629 253.284 368.264 59.1741 368.264 59.1741C368.264 59.1741 316.113 57.2138 274.698 56.2583C260.53 55.9362 247.617 55.7291 238.48 55.7556C237.368 55.7599 236.319 55.8325 235.339 55.9744C231.382 56.5385 228.448 58.1884 226.123 60.6895C219.454 67.8564 217.796 82.0096 211.626 97.6555C205.524 113.125 198.029 132.43 190.926 151.59C189.094 156.528 187.288 161.454 185.54 166.308C185.042 167.678 184.555 169.04 184.073 170.394C173.564 199.779 165.481 225.541 166.752 232.099Z"/><path fill="#DDB492" d="M0.687988 324.942C5.89635 358.307 39.9824 379.999 74.9062 379.999L109.152 379.98C86.5277 364.646 65.7054 316.96 0.687988 324.942Z"/><path fill="#E0B594" d="M252.674 55.7557C254.807 59.9771 258.453 64.4693 264.797 67.8057C293.089 82.6999 272.098 113.394 272.098 113.394C271.895 113.53 260.87 135.446 260.87 135.446C260.909 133.914 259.425 131.175 256.881 127.689C255.005 140.789 251.949 154.167 248.298 163.746C249.241 168.493 250.866 174.332 252.611 180.387C252.771 180.935 252.935 181.491 253.095 182.05C254.932 188.371 256.838 194.835 258.177 200.457C260.372 209.649 261.054 216.578 257.428 216.917C257.016 216.961 256.567 216.957 256.078 216.917C256.306 220.123 255.682 223.5 253.869 226.998C249.227 235.967 233.028 240.124 214.991 241.939C188.894 244.569 187.216 244.234 176.956 239.986C164.514 234.798 165.017 232.182 169.335 215.773C170.979 209.544 173.411 201.663 175.278 195.991C178.266 186.814 181.09 178.756 184.064 170.393C185.8 170.109 188.038 169.741 190.577 169.31C191.114 168.771 191.525 168.225 191.771 167.682C192.603 165.848 192.294 161.204 191.51 155.533C191.336 154.263 191.138 152.944 190.92 151.59C191.143 150.992 191.37 150.393 191.588 149.794C192.231 148.072 192.869 146.35 193.522 144.635C193.909 143.593 194.3 142.551 194.687 141.512C199.344 129.138 203.198 119.195 207.753 107.523C221.152 73.3036 220.301 58.1203 235.339 55.9733L252.674 55.7557Z"/><path fill="#D39E7A" d="M55.1522 349.674C68.5027 368.225 88.9805 380.116 111.797 379.744L209.868 379.796L256.853 379.817L203.987 205.712C203.987 205.712 70.1819 192.396 53.6852 210.149C46.0227 218.39 41.7233 255.711 39.3152 293.335C37.9543 314.546 44.1313 334.38 55.1522 349.674Z"/><path fill="#C6916D" d="M55.1528 349.87C68.5038 368.421 88.9174 380.36 111.731 379.992H209.868C198.325 370.304 162.034 342.813 123.171 344.113C93.7137 345.101 70.3203 344.678 55.1528 349.87Z"/><path fill="#F4A269" d="M99.2176 174.31C100.699 173.674 112.148 175.757 115.423 176.372C125.8 174.34 159.902 167.525 161.563 165.39C163.523 162.871 167.798 86.1139 172.696 84.8328C172.696 84.8328 182.33 78.9825 191.643 90.0809C200.961 101.179 185.024 180.52 171.223 184.596C155.892 189.123 111.601 183.871 111.601 183.871V183.87C107.963 185.113 101.605 185.812 98.2269 186.938C93.7687 188.423 89.8059 187.185 88.8152 185.453C87.8287 183.719 97.4838 175.053 99.2176 174.31Z"/><path fill="#FFB27D" d="M58.175 348.65C58.6049 353.331 52.0872 354.472 44.5384 354.847C36.9897 355.222 39.2703 356.767 28.9272 358.643C18.5841 360.516 14.4381 357.685 13.6876 356.286C13.0209 355.047 17.8299 353.105 22.956 350.916C23.6008 350.643 24.2457 350.358 24.8942 350.078C30.6614 347.542 33.9002 342.369 38.3959 337.571C42.6549 333.028 46.7025 318.48 46.7025 318.48L60.7581 315.478C60.7581 315.478 56.8125 328.572 55.4426 334.161C54.6338 337.447 55.8251 341.123 56.8817 343.921C57.45 345.444 58.022 346.999 58.175 348.65Z"/><path fill="#163560" d="M44.5385 354.847C36.9897 355.222 39.2703 356.767 28.9272 358.643C18.5841 360.516 14.4381 357.685 13.6876 356.286C13.0209 355.047 17.8299 353.105 22.956 350.916L23.0361 351.003C23.0361 351.003 30.308 353.473 38.7056 351.189C45.5476 349.331 52.1674 345.243 56.8817 343.921C57.45 345.444 58.022 346.999 58.175 348.65C58.6049 353.331 52.0872 354.472 44.5385 354.847Z"/><path fill="#2C3A64" d="M198.166 181.947C198.166 181.947 104.748 174.917 87.1602 186.016C69.5767 197.114 41.3716 326.395 41.3716 326.395C41.3716 326.395 43.111 327.79 46.9994 328.213C50.6147 328.603 58.5764 326.478 58.5764 326.478C58.5764 326.478 99.116 268.631 101.97 254.058C104.823 239.489 104.127 226.483 110.627 226.137C117.131 225.787 198.175 235.988 210.435 214.39C222.694 192.793 212.557 171.416 212.557 171.416L198.166 181.947Z"/><path fill="#FFB27D" d="M93.9186 363.655C94.3485 368.337 87.8308 369.474 80.2821 369.849C72.7333 370.224 75.0176 371.772 64.6708 373.645C54.3277 375.518 50.1817 372.687 49.4312 371.288C48.7645 370.049 53.5736 368.111 58.6996 365.918C59.3444 365.645 59.9929 365.364 60.6378 365.08C66.405 362.544 69.6439 357.371 74.1396 352.573C78.4022 348.03 82.4462 333.482 82.4462 333.482L96.5017 330.48C96.5017 330.48 92.5561 343.574 91.1862 349.163C90.3811 352.452 91.5688 356.125 92.6253 358.923C93.1936 360.446 93.7693 362.005 93.9186 363.655Z"/><path fill="#163560" d="M80.2821 369.849C72.7333 370.224 75.0176 371.772 64.6708 373.645C54.3277 375.518 50.1817 372.687 49.4312 371.288C48.7645 370.049 53.5736 368.111 58.6996 365.918L58.7797 366.005C58.7797 366.005 66.0553 368.475 74.4493 366.195C81.2949 364.337 87.911 360.245 92.6253 358.923C93.1936 360.446 93.7693 362.005 93.9187 363.655C94.3486 368.337 87.8308 369.474 80.2821 369.849Z"/><path fill="#2C3A64" d="M177.56 39.9451C177.56 39.8786 177.565 39.8025 177.57 39.7312C177.57 39.7312 177.57 39.7312 177.57 39.7265C177.608 38.1576 177.684 36.603 177.788 35.0578V35.0531C178.107 30.3369 178.725 25.7729 179.571 21.6795V21.6748C180.056 19.331 180.612 17.1393 181.23 15.1616C181.33 14.8573 181.425 14.5578 181.52 14.2678C183.027 9.75606 184.872 6.46138 186.888 5.13022C190.572 2.69608 195.146 2.15407 198.36 2.13029C197.48 1.33159 195.835 1.13191 195.835 1.13191C197.803 0.704041 202.377 2.37752 202.377 2.37752C229.338 -10.1308 236.403 30.3274 236.455 39.831C236.484 44.9846 236.693 50.5422 239.16 55.7576C239.203 55.8479 239.246 55.9382 239.293 56.0286C241.404 60.3406 245.089 64.4102 251.545 67.8047C279.842 82.6991 258.847 113.393 258.847 113.393C258.643 113.532 239.113 137.94 239.113 137.94C239.16 136.041 240.468 130.905 236.721 126.179C233.702 122.37 234.658 116.827 230.179 112.192C229.78 111.783 229.381 111.368 228.977 110.956C227.821 109.777 226.638 108.589 225.43 107.4C221.289 103.317 216.887 99.2094 212.508 95.3699C211.686 94.6521 210.873 93.9442 210.055 93.2458C208.686 92.0791 207.326 90.9405 205.985 89.8456C205.952 89.8171 205.919 89.789 205.881 89.7614C205.524 89.4681 205.168 89.1781 204.811 88.8914C203.813 88.0923 202.829 87.3159 201.863 86.5676C200.684 85.6629 199.529 84.7986 198.402 83.9846C197.922 83.6324 197.442 83.2891 196.971 82.9582C195.564 81.9727 194.214 81.0679 192.93 80.2635C192.512 80.0016 192.103 79.752 191.699 79.5095C191.604 79.4525 191.514 79.4002 191.418 79.3479C191.138 79.1815 190.867 79.0246 190.596 78.8724C190.111 78.2449 188.671 77.1134 187.43 76.0294C187.482 76.134 187.534 76.2434 187.582 76.348C187.744 76.657 187.896 76.9422 188.053 77.2085C187.834 77.0326 187.62 76.8519 187.411 76.6665C187.168 76.4431 186.931 76.2196 186.698 75.9819C186.184 75.4685 185.699 74.9075 185.233 74.3132C185.024 74.047 184.824 73.7712 184.62 73.4907C184.344 73.0961 184.078 72.6872 183.817 72.2641C182.709 70.467 181.768 68.4275 180.974 66.2073C179.215 61.2629 178.192 55.4105 177.764 49.3109C177.551 46.2254 177.489 43.0734 177.56 39.9451Z"/><path fill="#FFB27D" d="M219.945 69.9596C219.945 69.9596 212.217 69.2259 204.493 69.9596C199.239 70.456 194.037 72.0859 191.076 73.3248C183.766 76.3826 184.534 89.3297 199.88 86.931C215.226 84.5322 221.021 73.7993 219.945 69.9596Z"/><path fill="#FFB27D" d="M191.727 79.403C191.639 79.4468 189.537 90.5393 199.589 90.0959C206.182 89.8062 220.408 81.8216 219.153 76.1766C218.556 73.4902 213.569 66.5239 212.569 50.6249L211.366 50.9453L191.174 56.362C191.174 56.362 192.069 62.7708 192.491 68.8372C192.842 73.9291 192.855 78.7796 191.727 79.403Z"/><path fill="#F4A269" d="M191.172 56.3634C191.172 56.3634 192.069 62.7735 192.489 68.8369C203.918 67.7491 209.275 56.9008 211.364 50.9501L191.172 56.3634Z"/><path fill="#2C3A64" d="M213.334 48.5786C213.334 48.5786 218.701 38.6956 219.601 30.4934C220.242 24.6391 215.866 3.38086 194.512 7.90985C194.512 7.90985 188.289 8.94558 182.671 13.3122C178.204 16.7835 171.902 24.0598 180.701 42.2767L183.088 48.4689L213.334 48.5786Z"/><path fill="#FFB27D" d="M178.533 44.6993C180.483 53.4769 183.771 62.3197 187.737 62.3633C187.737 62.3633 189.148 62.2936 191.316 61.9845C198.648 60.9308 214.601 57.1516 213.748 44.1246C213.038 33.3051 213.922 24.6755 210.06 19.921C207.9 17.2608 204.26 15.8109 198.034 15.8675C180.675 16.0199 177.736 22.6814 176.735 28.4025C176.291 30.9191 177.005 37.7896 178.533 44.6993Z"/><path fill="#2C3A64" d="M185.671 16.2755C185.671 16.2755 194.408 35.5747 205.987 37.7444C217.567 39.9142 222.298 36.5341 222.298 36.5341C222.298 36.5341 219.116 23.4715 216.493 11.4827C216.493 11.4827 190.64 6.47854 185.671 16.2755Z"/><path fill="#2C3A64" d="M187.616 17.7582C187.616 17.7582 182.368 22.5498 181.305 26.935C180.241 31.3203 180.157 40.3965 177.556 40.2667C177.556 40.2667 171.759 25.6492 177.531 17.6158C183.654 9.10083 187.616 17.7582 187.616 17.7582Z"/><path fill="#1DD1FC" d="M164.256 177.557C166.489 176.133 169.287 174.674 171.83 173.193C174.943 171.383 177.673 169.537 178.516 167.684C179.177 166.239 179.122 163.049 178.685 158.985C178.12 153.688 176.912 146.908 175.791 140.56C174.487 133.16 173.316 126.351 173.444 123.179C173.754 115.204 176.415 103.235 176.415 103.235C165.5 101.139 165.782 96.7301 165.782 96.7301C167.15 93.2663 174.073 80.5598 176.803 77.6201C179.528 74.685 191.077 73.3268 191.077 73.3268C191.077 73.3268 188.137 84.1329 200.794 84.1329C213.45 84.1329 219.945 69.9588 219.945 69.9588C225.765 69.6352 245.682 69.4483 245.9 86.5211C246.169 107.715 236.922 148.444 234.32 159.01C235.208 168.565 241.703 186.952 244.921 200.462C247.117 209.65 247.796 216.58 244.169 216.922C234.807 217.807 202.868 198.407 193.092 192.665C188.789 190.139 180.877 191.886 175.116 190.933C167.797 189.728 162.797 185.985 160.6 183.359C159.074 181.527 161.083 179.58 164.256 177.557Z"/><path fill="#1CBBFF" d="M159.399 175.857C160.132 176.229 165.775 178.285 166.619 178.623C209.918 196.028 232.666 103.414 232.666 103.414C232.666 103.414 198.002 121.807 175.428 140.821C175.852 147.384 175.959 151.312 176.522 156.608C176.959 160.673 176.406 164.142 175.749 165.588C174.901 167.441 172.169 169.286 169.061 171.097C166.516 172.577 161.627 174.432 159.399 175.857Z"/><path fill="#FFCCA9" d="M115.299 139.062C115.299 139.062 114.449 138.288 114.951 137.764C115.458 137.24 116.325 137.924 116.253 137.104C116.186 136.285 117.689 135.896 118.121 135.532C118.556 135.168 118.874 134.008 118.849 133.941C118.828 133.87 118.849 133.757 118.849 133.757C118.849 133.757 119.875 132.643 120.26 132.961C120.649 133.279 122.157 135.075 123.032 133.916C123.903 132.756 123.475 132.597 123.769 132.048C124.066 131.504 124.451 131.366 125.159 131.843C125.866 132.321 127.411 131.843 127.729 131.433C128.052 131.023 130.714 130.935 130.714 130.935L130.894 131.048L131.108 131.161C131.108 131.161 131.079 133.392 132.1 132.526C133.13 131.663 133.423 131.14 133.859 130.935C134.286 130.73 135.47 129.114 136.634 130.16C137.794 131.207 140.892 129.612 140.984 129.314C141.076 129.021 143.212 128.109 143.919 129.314C144.627 130.524 145.15 130.956 146.791 130.34C148.433 129.725 148.977 128.883 149.408 129.817C149.839 130.751 150.317 131.73 151.866 130.818C153.415 129.909 153.415 129.909 153.415 129.909C153.415 129.909 156.718 128.996 156.739 130.704C156.764 132.413 159.335 134.213 160.679 132.254C162.023 130.294 159.858 128.929 162.32 128.816C164.777 128.703 164.673 128.724 165.112 127.61C165.552 126.493 168.671 127.652 168.378 128.816C168.077 129.976 169.199 128.929 169.743 129.771C170.291 130.612 173.888 130.319 174.026 131.868C174.16 133.413 177.141 130.688 178.28 133.108C179.418 135.532 182.558 136.126 182.722 134.874C182.881 133.618 187.344 135.193 185.318 139.427C183.287 143.662 115.299 139.062 115.299 139.062Z"/><path fill="#F4A269" d="M127.764 135.186C127.764 135.186 129.95 135.792 130.132 135.427C130.311 135.062 130.462 133.283 132.318 134.188C134.166 135.093 134.776 135.093 135.199 134.425C135.626 133.757 137.781 135.419 137.692 135.543C137.598 135.671 135.079 135.753 134.974 135.881C134.015 137.038 134.652 136.976 132.982 137.096C131.312 137.216 132.011 135.093 130.858 135.943C129.705 136.793 127.764 135.186 127.764 135.186Z"/><path fill="#F4A269" d="M141.969 139.526C141.969 139.526 141.605 137.4 142.912 136.943C144.216 136.489 144.398 136.428 144.398 136.428C144.398 136.428 144.977 136.522 144.852 135.914C144.73 135.307 144.613 135.185 144.613 135.185C144.613 135.185 144.852 134.274 146.071 135.185C147.281 136.096 146.646 137.368 147.585 136.582C148.528 135.793 146.982 134.667 149.439 135.517C151.897 136.368 152.322 136.368 151.958 136.975C151.593 137.582 154.294 138.218 154.598 137.671C154.905 137.125 154.326 138.21 154.841 137.153C155.359 136.096 153.735 135.914 153.861 135.214C153.994 134.517 154.144 132.857 155.116 134.189C156.088 135.517 156.27 136.975 157.42 135.914C158.578 134.849 160.517 135.125 160.125 136.185C159.732 137.25 159.003 138.218 161.947 137.461C164.89 136.704 164.161 139.858 164.161 139.858L141.969 139.526Z"/><path fill="#F4A269" d="M171.356 132.695C171.356 132.695 171.537 134.862 172.508 134.188C173.483 133.513 175.425 134.517 174.906 135.364C174.392 136.216 172.874 137.187 172.027 135.944C171.171 134.698 170.081 135.397 169.686 135.611C169.291 135.821 169.596 133.394 169.686 133.361C169.777 133.332 170.875 134.879 171.356 132.695Z"/><path fill="#B5453C" d="M168.974 201.617H174.415C175.63 201.617 176.656 200.721 176.827 199.518L185.128 140.472H175.116L168.974 201.617Z"/><path fill="#E9F3FE" d="M161.422 201.614H168.98L175.123 140.469H165.115L161.422 201.614Z"/><path fill="#B5453C" d="M153.858 201.617H161.42L165.11 140.469H155.102L153.858 201.617Z"/><path fill="#E9F3FE" d="M146.221 201.616H153.779L154.991 140.471H144.98L146.221 201.616Z"/><path fill="#B5453C" d="M138.662 201.617H146.22L144.977 140.47H134.972L138.662 201.617Z"/><path fill="#E9F3FE" d="M131.106 201.617H138.66L134.97 140.469H124.962L131.106 201.617Z"/><path fill="#B5453C" d="M125.662 201.616H131.106L124.963 140.47H114.952L123.25 199.517C123.423 200.719 124.448 201.616 125.662 201.616Z"/><path fill="#9B2B26" d="M114.331 142.727H185.373C186.449 142.727 187.32 141.857 187.32 140.784C187.32 139.711 186.449 138.841 185.373 138.841H114.331C113.259 138.841 112.388 139.711 112.388 140.784C112.388 141.857 113.259 142.727 114.331 142.727Z"/><path fill="#35488B" d="M216.462 187.737C216.462 187.737 133.477 191.665 116.334 203.44C99.1918 215.215 76.0449 345.497 76.0449 345.497C76.0449 345.497 77.8371 346.823 81.7377 347.093C85.3679 347.341 93.2378 344.907 93.2378 344.907C93.2378 344.907 131.492 285.53 133.779 270.855C136.066 256.183 134.861 243.217 141.342 242.616C147.828 242.015 229.209 249.054 240.617 226.998C252.025 204.938 216.462 187.737 216.462 187.737Z"/><path fill="#EFCBAB" d="M136.424 326.688C142.028 359.048 172.808 379.555 204.36 379.555H267.965L262.989 185.093C262.989 185.093 202.3 163.911 187.058 184.061C173.702 201.712 137.487 271.589 135.582 312.946C135.362 317.73 135.657 322.32 136.424 326.688Z"/><path fill="#DDB492" d="M136.425 327.124C142.032 359.484 172.81 379.991 204.362 379.991H255.261C231.434 363.841 199.358 319.222 136.425 327.124Z"/><path fill="#C48E6A" d="M347.565 379.991C373.902 379.813 394.578 371.594 407.97 348.918C417.725 332.44 422.057 310.85 424.24 291.832C425.495 280.899 426.253 268.796 426.547 255.44C426.717 247.683 426.728 239.512 426.587 230.903C426.361 217.142 425.739 202.264 424.749 186.206C423.346 163.661 421.209 138.786 418.387 111.409C415.814 86.4021 412.839 68.9226 408.524 64.9389C402.15 59.0659 388.86 56.7014 379.614 55.7558C379.608 55.7558 379.608 55.7558 379.608 55.7558H379.597C379.591 55.7558 379.591 55.7558 379.591 55.7558C370.514 54.804 364.243 54.3244 357.049 58.7661C351.382 62.2594 346.909 68.0646 344.732 75.282C337.357 99.8211 324.174 143.695 310.46 189.584C310.387 189.812 310.319 190.043 310.251 190.274C309.465 192.907 308.679 195.556 307.887 198.201C307.808 198.467 307.729 198.737 307.644 199.003C307.604 199.137 307.559 199.276 307.559 199.276C307.559 199.276 307.401 199.356 307.288 199.305C306.62 199.006 305.823 198.646 305.116 198.34C305.093 198.325 305.065 198.311 305.031 198.3C285.78 189.771 258.425 179.522 237.388 178.234C226.484 177.567 214.206 179.119 208.828 188.673C197.24 209.153 173.482 274.581 171.718 312.81C169.959 350.918 201.069 376.862 235.024 379.412C237.048 379.557 238.796 379.991 240.492 379.991H347.565Z"/><path fill="#F9DDBF" d="M337.063 207.183C337.063 207.183 369.706 74.179 372.067 63.0011C373.114 58.019 376.349 56.2186 379.607 55.755C373.87 55.1679 369.695 55.1239 369.695 55.1239C358.399 55.1239 348.364 63.2082 344.731 75.2249C336.827 101.433 322.048 150.085 307.302 199.309L337.063 207.183Z"/><path fill="#427B88" d="M407.446 275.934C407.446 275.934 390.744 256.458 406.419 244.085C406.419 244.085 417.859 237.156 427.191 237.72C427.191 237.72 417.022 254.155 421.299 256.359C425.577 258.567 431.199 236.329 431.199 236.329C431.199 236.329 457.233 233.804 465.617 237.83C465.617 237.83 443.348 256.046 448.042 257.132C452.729 258.218 476.776 240.337 476.776 240.337C476.776 240.337 501.012 244.46 499.717 259.245C498.427 274.032 490.074 278.597 486.407 278.204C482.734 277.81 461.266 269.613 460.795 272.623C460.331 275.628 473.256 285.458 482.306 285.917C482.306 285.917 465.22 304.763 453.859 299.324C442.505 293.884 441.533 285.265 434.457 282.029C427.374 278.798 423.762 280.597 426.683 283.895C429.604 287.192 439.987 288.605 444.039 295.764C448.084 302.927 451.72 307.758 439.969 305.987C428.223 304.22 409.12 295.622 408.283 285.778C407.446 275.934 407.446 275.934 407.446 275.934Z"/><path fill="#599DAD" d="M487.811 259.645C487.811 259.645 421.987 257.106 407.443 275.933C407.443 275.933 404.235 285.563 394.339 294.332L392.795 298.532C392.795 298.532 404.204 286.506 408.281 285.777C408.281 285.777 401.901 262.454 487.811 259.645Z"/><path fill="#599DAD" d="M394.336 294.332C394.336 294.332 380.209 304.78 379.229 323.452L381.79 323.681C381.79 323.681 386.306 304.376 394.463 296.824C402.619 289.275 394.336 294.332 394.336 294.332Z"/><path fill="#ADFFFB" d="M349.074 251.436C349.074 251.436 375.628 236.564 363.235 216.381C363.235 216.381 353.321 203.986 342.696 200.799C342.696 200.799 348.364 230.899 342.696 231.606C337.034 232.316 340.484 199.039 340.484 199.039C340.484 199.039 310.826 184.155 299.849 185.217C299.849 185.217 317.199 214.61 311.532 213.9C305.869 213.193 286.393 183.446 286.393 183.446C286.393 183.446 257.707 178.135 253.108 195.133C248.503 212.129 255.939 220.629 260.191 221.692C264.438 222.753 291.703 222.399 290.998 225.94C290.287 229.482 271.874 235.147 261.601 231.963C261.601 231.963 272.937 259.936 287.808 258.518C302.685 257.105 307.285 247.895 316.494 247.188C325.698 246.478 332.429 248.958 327.824 251.436C323.22 253.917 307.637 252.248 300.202 258.573C292.766 264.894 286.751 268.789 300.554 271.623C314.368 274.454 339.154 272.683 344.117 262.06C349.074 251.436 349.074 251.436 349.074 251.436Z"/><path fill="#6BB7BF" d="M266.21 200.445C266.21 200.445 340.575 224.524 349.076 251.436C349.076 251.436 348.719 263.477 356.154 277.289V282.601C356.154 282.601 348.362 264.541 344.114 262.06C344.114 262.06 360.758 238.689 266.21 200.445Z"/><path fill="#6BB7BF" d="M356.148 277.29C356.148 277.29 367.617 294.705 361.08 315.904L358.132 315.11C358.132 315.11 360.996 291.761 354.994 280.019C348.992 268.273 356.148 277.29 356.148 277.29Z"/><path fill="#ADFFFB" d="M391.325 230.925C391.325 230.925 356.317 211.321 372.652 184.714C372.652 184.714 385.724 168.376 399.727 164.175C399.727 164.175 392.256 203.853 399.727 204.785C407.191 205.718 404.859 159.974 404.859 159.974C404.859 159.974 441.737 142.236 456.209 143.636C456.209 143.636 433.335 182.38 440.805 181.446C448.276 180.513 473.944 141.303 473.944 141.303C473.944 141.303 511.759 134.301 517.823 156.707C523.893 179.113 514.091 190.315 508.49 191.717C502.888 193.116 466.949 192.649 467.88 197.317C468.812 201.983 493.086 209.452 506.62 205.252C506.62 205.252 491.686 242.128 472.081 240.263C452.477 238.394 446.407 226.258 434.272 225.326C422.132 224.389 413.261 227.658 419.332 230.925C425.395 234.193 445.938 231.997 455.74 240.332C465.542 248.664 473.475 253.797 455.271 257.532C437.073 261.267 404.397 258.935 397.858 244.93C391.325 230.925 391.325 230.925 391.325 230.925Z"/><path fill="#6BB7BF" d="M500.555 163.708C500.555 163.708 402.524 195.451 391.321 230.925C391.321 230.925 391.792 246.799 381.988 265V272.003C381.988 272.003 392.256 248.198 397.857 244.93C397.857 244.93 375.922 214.123 500.555 163.708Z"/><path fill="#6BB7BF" d="M381.988 265.001C381.988 265.001 366.868 287.957 375.488 315.904L379.372 314.858C379.372 314.858 375.597 284.081 383.51 268.601C391.418 253.12 381.988 265.001 381.988 265.001Z"/><path fill="#ED7D2B" d="M458.72 307.925C458.72 345.796 428.016 376.501 390.145 376.501C382.239 376.501 374.644 375.161 367.575 372.698C340.787 363.368 321.564 337.891 321.564 307.925H458.72Z"/><path fill="#F99746" d="M413.581 307.925C413.581 333.617 407.426 359.782 386.51 371.528C383.037 373.482 371.397 371.368 367.578 372.698C340.786 363.367 321.565 337.891 321.565 307.925H413.581Z"/><path fill="#FFB176" d="M390.141 376.501C387.353 376.848 401.383 376.501 398.495 376.501C360.623 376.501 329.923 345.796 329.923 307.921H346.956C346.956 342.915 356.29 372.304 390.141 376.501Z"/><path fill="#ED7D2B" d="M459.67 379.991H320.62C320.62 377.656 321.563 375.539 323.098 374.009C324.627 372.476 326.741 371.528 329.084 371.528H451.212C455.88 371.528 459.67 375.317 459.67 379.991Z"/><path fill="#F99746" d="M394.518 379.991H320.621C320.621 377.656 321.565 375.539 323.098 374.009C324.627 372.475 326.744 371.528 329.08 371.528H386.059C390.731 371.528 394.518 375.317 394.518 379.991Z"/><path fill="#DB6A1F" d="M460.281 307.922V310.028H319.308V307.922H460.281Z"/><path fill="#FFB27D" d="M240.561 94.8239C240.561 94.8239 205.575 148.79 183.299 146.965C183.299 146.965 179.371 146.76 181.952 137.075C184.524 127.39 221.4 74.894 227.765 74.0578C234.129 73.217 241.71 84.0882 240.561 94.8239Z"/><path fill="#1DD1FC" d="M211.776 87.2985C211.776 87.2985 215.901 102.99 237.407 102.317C237.407 102.317 251.865 89.324 238.777 75.1455C225.694 60.9671 211.776 87.2985 211.776 87.2985Z"/><path fill="#FFB27D" d="M176.478 65.2136C176.478 65.2136 173.691 49.7201 175.879 49.2491C178.063 48.778 190.76 51.9641 190.169 56.3363C189.574 60.7129 186.294 67.3761 186.294 67.3761C187.634 113.158 202.926 138.484 184.859 146.852C182.277 148.049 173.001 142.103 173.001 142.103C165.207 133.23 176.478 65.2136 176.478 65.2136Z"/><path fill="#F4A269" d="M186.359 51.9855C186.359 51.9855 192.404 54.1779 188.471 62.3096L191.859 61.904C191.859 61.904 193.46 53.8653 186.359 51.9855Z"/></svg>